<svg width="54" height="57" viewBox="0 0 54 57" fill="none" xmlns="http://www.w3.org/2000/svg">
<path d="M10.0951 25.7721C9.93121 25.499 10.4956 22.7134 10.9872 21.3115C13.081 15.4853 16.9408 11.9896 23.0219 10.4056C29.194 8.8034 36.4403 11.1885 40.2637 16.0861C42.2301 18.5805 43.8141 22.6224 43.8323 25.1349C43.8323 25.9178 43.8323 25.9178 43.2497 25.8632C42.667 25.8086 42.667 25.8086 42.4486 24.4066C41.52 18.3438 37.642 13.701 31.9979 11.8439C29.7402 11.1157 26.5176 10.9336 24.1507 11.4252C21.1102 12.026 18.452 13.3733 16.2854 15.3396C13.8093 17.6155 11.8065 21.4389 11.4606 24.5705C11.3331 25.7904 11.3331 25.8086 10.7505 25.8632C10.441 25.8996 10.1497 25.845 10.0951 25.7721Z" fill="#2E328E"/>
<path d="M0.754828 24.9893C0.936896 23.6237 1.00972 23.5327 1.77441 23.5327C2.13855 23.5327 2.8122 23.4781 3.26737 23.4235L4.06847 23.3142L4.66929 21.6392L5.25191 19.9824L4.56005 19.3634C4.17771 19.0356 3.55868 18.5623 3.19454 18.3256C2.8122 18.0889 2.50268 17.7612 2.50268 17.6155C2.50268 17.1239 3.39481 15.3396 3.6315 15.3396C3.75895 15.3396 4.46902 15.5035 5.2155 15.7038C5.96197 15.8859 6.63563 16.0133 6.70845 15.9587C7.03618 15.7584 8.51093 13.4826 8.51093 13.173C8.51093 12.991 8.20141 12.4084 7.80086 11.8621C6.5628 10.0961 6.5628 10.1871 7.52776 9.14933C8.00114 8.63954 8.52913 8.23899 8.69299 8.23899C8.87506 8.23899 9.62154 8.62133 10.3862 9.0765L11.7517 9.91402L12.8988 9.0583C13.536 8.58492 14.1186 8.11154 14.1915 8.0023C14.2461 7.87486 14.1186 6.9281 13.8819 5.87211C13.6452 4.81611 13.4996 3.88756 13.5542 3.81474C13.6817 3.59626 15.211 2.95902 15.5752 2.95902C15.739 2.95902 16.4855 3.66908 17.232 4.5248C18.2152 5.65363 18.6521 6.03597 18.8706 5.96314C19.0345 5.89031 19.5078 5.70825 19.9266 5.56259C20.3454 5.41694 20.7277 5.16204 20.7823 4.99818C20.8369 4.83432 20.9644 3.83294 21.0736 2.81336C21.1647 1.77558 21.2921 0.865235 21.3467 0.774201C21.4196 0.66496 23.2038 0.373651 24.0777 0.319031C24.1688 0.319031 24.5147 1.22937 24.8242 2.32178L25.4068 4.32453L26.5539 4.47018C27.1729 4.54301 27.8101 4.56122 27.9376 4.5248C28.065 4.47018 28.6112 3.54164 29.1392 2.46743L30.086 0.501099L31.2148 0.446478C32.9627 0.355444 33.0901 0.501099 33.1083 2.28537C33.1083 3.10467 33.1629 4.10605 33.2358 4.48839C33.3632 5.16204 33.436 5.21666 34.3646 5.54438L35.366 5.89031L36.8225 4.32453C37.6236 3.46881 38.3337 2.77695 38.4065 2.77695C38.6614 2.77695 41.2832 4.10605 41.2832 4.23349C41.2832 4.28811 41.0465 5.07101 40.737 5.96314C40.4457 6.85527 40.1908 7.71099 40.1908 7.85665C40.1908 8.02051 40.7188 8.58492 41.356 9.09471L42.5212 10.0597L43.6865 9.40423C44.3237 9.04009 45.0884 8.60313 45.4161 8.40285C45.9805 8.05692 45.9987 8.05692 46.3265 8.36644C47.0911 9.16754 48.0197 10.2964 48.0197 10.4602C48.0197 10.5513 47.5281 11.2795 46.9273 12.0624C46.3265 12.8453 45.8349 13.5736 45.8349 13.6828C45.8349 13.7739 46.1808 14.4111 46.5996 15.0665L47.346 16.2682L49.0939 16.159L50.8417 16.0315L51.2605 17.5427L51.6793 19.072L51.2605 19.4362C51.0238 19.6365 50.4958 20.0916 50.0771 20.4376L49.3306 21.0748L49.6401 22.3493L49.9314 23.6237L51.6611 23.9879L53.3907 24.352L53.4453 25.1349L53.4999 25.8996H49.3124H45.1066V25.2806C45.1066 23.5327 43.9414 19.418 42.9582 17.7065C40.1544 12.8089 36.5312 10.2782 30.523 9.0583C28.502 8.63954 24.5511 8.76699 22.4938 9.29499C15.9939 11.0246 11.6789 15.3579 9.71258 22.1308C9.45768 22.9865 9.20279 24.1699 9.12996 24.789L9.00251 25.8996H4.81495H0.62738L0.754828 24.9893Z" fill="#00AEF0"/>
<path d="M53.1177 36.0044H39.7357L26.8088 49.5684L14.3372 36.0044H0.5V31.6347H14.3372L26.8088 44.2885L39.7357 31.6347H53.1177V36.0044Z" fill="#2E328E"/>
<path d="M29.6309 19.072H24.533V14.4293H29.6309V19.072Z" fill="#2E328E"/>
<path d="M26.8088 21.712L35.0929 26.3547V20.3465H19.344V25.4444L26.8088 21.712Z" fill="#2E328E"/>
<path d="M27.7192 24.6251V41.5574L38.006 30.2692L27.7192 24.6251Z" fill="#2E328E"/>
<path d="M25.6254 24.6251V41.5574L15.4296 30.2692L25.6254 24.6251Z" fill="#2E328E"/>
<path d="M14.3372 36.7327L26.8088 50.3878L39.7357 36.7327H53.1177V43.014H39.7357L26.8088 56.396L14.3372 43.7423H0.5V36.7327H14.3372Z" fill="#00AEF0"/>
</svg>
